REM DIRINDEX 1\2\5,1\2\6,1\2\7,1\2\8,1\3\9,1\3\10,1\3\11,1\4\12,1\4\13,1\4\14,1\4\15,1\4\16
REM DIRNAME folder01,folder02,folder03,folder04,folder05,folder06,folder07,folder08,folder09,folder10,folder11,folder12,folder13,folder14,folder15,folder16
TITLE ""
FILE "1200_sec04_1291_1298.mp3" MP3
  TRACK 01 AUDIO
    TITLE "0:"
    INDEX 01 00:00:00
  TRACK 02 AUDIO
    TITLE "12:cjc034_08880"
    INDEX 01 00:00:17
  TRACK 03 AUDIO
    TITLE "0:"
    INDEX 01 00:01:40
  TRACK 04 AUDIO
    TITLE "13:cjc034_08881"
    INDEX 01 00:01:69
  TRACK 05 AUDIO
    TITLE "0:"
    INDEX 01 00:11:62
  TRACK 06 AUDIO
    TITLE "14:cjc034_08882"
    INDEX 01 00:12:18
  TRACK 07 AUDIO
    TITLE "0:"
    INDEX 01 00:13:41
  TRACK 08 AUDIO
    TITLE "15:cjc034_08883"
    INDEX 01 00:13:73
  TRACK 09 AUDIO
    TITLE "0:"
    INDEX 01 00:17:69
  TRACK 10 AUDIO
    TITLE "12:cjc034_08884"
    INDEX 01 00:19:28
  TRACK 11 AUDIO
    TITLE "0:"
    INDEX 01 00:20:45
  TRACK 12 AUDIO
    TITLE "13:cjc034_08885"
    INDEX 01 00:21:04
  TRACK 13 AUDIO
    TITLE "0:"
    INDEX 01 00:22:09
  TRACK 14 AUDIO
    TITLE "14:cjc034_08886"
    INDEX 01 00:22:40
  TRACK 15 AUDIO
    TITLE "0:"
    INDEX 01 00:23:57
  TRACK 16 AUDIO
    TITLE "15:cjc034_08887"
    INDEX 01 00:24:16
  TRACK 17 AUDIO
    TITLE "0:"
    INDEX 01 00:27:28
  TRACK 18 AUDIO
    TITLE "12:cjc034_08888"
    INDEX 01 00:28:64
  TRACK 19 AUDIO
    TITLE "0:"
    INDEX 01 00:30:10
  TRACK 20 AUDIO
    TITLE "13:cjc034_08889"
    INDEX 01 00:30:44
  TRACK 21 AUDIO
    TITLE "0:"
    INDEX 01 00:32:35
  TRACK 22 AUDIO
    TITLE "14:cjc034_08890"
    INDEX 01 00:32:64
  TRACK 23 AUDIO
    TITLE "0:"
    INDEX 01 00:34:10
  TRACK 24 AUDIO
    TITLE "15:cjc034_08891"
    INDEX 01 00:34:45
  TRACK 25 AUDIO
    TITLE "0:"
    INDEX 01 00:38:14
  TRACK 26 AUDIO
    TITLE "12:cjc034_08892"
    INDEX 01 00:39:49
  TRACK 27 AUDIO
    TITLE "0:"
    INDEX 01 00:40:73
  TRACK 28 AUDIO
    TITLE "13:cjc034_08893"
    INDEX 01 00:41:30
  TRACK 29 AUDIO
    TITLE "0:"
    INDEX 01 00:42:31
  TRACK 30 AUDIO
    TITLE "14:cjc034_08894"
    INDEX 01 00:42:63
  TRACK 31 AUDIO
    TITLE "0:"
    INDEX 01 00:44:12
  TRACK 32 AUDIO
    TITLE "15:cjc034_08895"
    INDEX 01 00:44:44
  TRACK 33 AUDIO
    TITLE "0:"
    INDEX 01 00:50:58
  TRACK 34 AUDIO
    TITLE "12:cjc034_08896"
    INDEX 01 00:52:16
  TRACK 35 AUDIO
    TITLE "0:"
    INDEX 01 00:53:33
  TRACK 36 AUDIO
    TITLE "13:cjc034_08897"
    INDEX 01 00:53:66
  TRACK 37 AUDIO
    TITLE "0:"
    INDEX 01 01:03:71
  TRACK 38 AUDIO
    TITLE "14:cjc034_08898"
    INDEX 01 01:04:29
  TRACK 39 AUDIO
    TITLE "0:"
    INDEX 01 01:05:48
  TRACK 40 AUDIO
    TITLE "15:cjc034_08899"
    INDEX 01 01:06:06
  TRACK 41 AUDIO
    TITLE "0:"
    INDEX 01 01:09:71
  TRACK 42 AUDIO
    TITLE "12:cjc034_08900"
    INDEX 01 01:11:29
  TRACK 43 AUDIO
    TITLE "0:"
    INDEX 01 01:12:50
  TRACK 44 AUDIO
    TITLE "13:cjc034_08901"
    INDEX 01 01:13:06
  TRACK 45 AUDIO
    TITLE "0:"
    INDEX 01 01:15:17
  TRACK 46 AUDIO
    TITLE "14:cjc034_08902"
    INDEX 01 01:15:48
  TRACK 47 AUDIO
    TITLE "0:"
    INDEX 01 01:16:69
  TRACK 48 AUDIO
    TITLE "15:cjc034_08903"
    INDEX 01 01:17:26
  TRACK 49 AUDIO
    TITLE "0:"
    INDEX 01 01:20:65
  TRACK 50 AUDIO
    TITLE "12:cjc034_08904"
    INDEX 01 01:22:23
  TRACK 51 AUDIO
    TITLE "0:"
    INDEX 01 01:23:48
  TRACK 52 AUDIO
    TITLE "13:cjc034_08905"
    INDEX 01 01:24:06
  TRACK 53 AUDIO
    TITLE "0:"
    INDEX 01 01:25:70
  TRACK 54 AUDIO
    TITLE "14:cjc034_08906"
    INDEX 01 01:26:27
  TRACK 55 AUDIO
    TITLE "0:"
    INDEX 01 01:27:53
  TRACK 56 AUDIO
    TITLE "15:cjc034_08907"
    INDEX 01 01:28:12
  TRACK 57 AUDIO
    TITLE "0:"
    INDEX 01 01:32:64
  TRACK 58 AUDIO
    TITLE "12:cjc034_08908"
    INDEX 01 01:34:22
  TRACK 59 AUDIO
    TITLE "0:"
    INDEX 01 01:35:37
  TRACK 60 AUDIO
    TITLE "13:cjc034_08909"
    INDEX 01 01:35:69
  TRACK 61 AUDIO
    TITLE "0:"
    INDEX 01 01:39:39
  TRACK 62 AUDIO
    TITLE "14:cjc034_08910"
    INDEX 01 01:39:72
  TRACK 63 AUDIO
    TITLE "0:"
    INDEX 01 01:41:10
  TRACK 64 AUDIO
    TITLE "15:cjc034_08911"
    INDEX 01 01:41:42
  TRACK 65 AUDIO
    TITLE "0:"
    INDEX 01 01:46:02
